<svg width="180" height="71" viewBox="0 0 180 71" fill="none" xmlns="http://www.w3.org/2000/svg">
<g clip-path="url(#clip0_76_2)">
<path d="M58.9933 29.7157C55.936 26.5803 55.9276 26.568 58.9843 23.6758C64.0026 18.9276 69.0324 14.1962 74.0603 9.46213C74.4036 9.13893 74.7957 8.87835 75.0716 8.0077C72.5964 8.04783 70.2297 7.1747 68.0788 9.20066C63.0528 13.9345 57.9951 18.6215 52.958 23.3391C48.92 27.1209 44.8842 30.9063 40.8709 34.7243C40.1916 35.3705 39.7014 35.2066 39.1401 34.5854C38.0484 33.3771 36.9529 32.1716 35.8236 31.0127C34.9069 30.0721 35.0494 29.4426 35.9851 28.5727C43.3028 21.7695 50.5838 14.9114 57.8701 8.06143C59.8214 6.227 61.7863 4.40923 63.6813 2.49627C65.1888 0.974457 66.7695 0.322146 68.8365 0.446054C72.8214 0.684905 76.8247 0.512948 80.8202 0.480714C83.1144 0.462205 84.5687 1.93429 84.6634 4.66522C84.779 7.99767 83.7354 10.7995 81.5104 12.9089C75.1586 18.9309 68.7563 24.88 62.4563 30.9759C60.6112 32.7612 60.1231 30.4976 58.9933 29.7157Z" fill="#7C3AED"/>
<path d="M17.2977 62.1188C20.7148 59.9886 23.5528 57.1315 26.5459 54.5512C32.5892 49.3415 38.5414 43.9845 44.5012 38.6418C45.2694 37.9532 45.8111 37.8567 46.4808 38.7166C47.7857 40.3922 49.4344 41.6648 50.6116 43.4375C50.4844 44.4474 49.8001 44.758 49.2928 45.2002C40.5526 52.8181 31.7943 60.4071 23.0539 68.0246C21.2541 69.5933 19.3425 70.3961 17.0382 70.3252C12.103 70.1736 7.16154 70.2141 2.22413 70.297C0.592178 70.3244 0.0593266 69.6081 0.189733 67.7511C0.479531 63.6245 1.45634 60.158 4.59811 57.5543C10.8562 52.368 16.902 46.8252 23.0092 41.3886C23.822 40.665 24.4031 40.6031 25.1582 41.4654C26.4642 42.9567 27.8492 44.3518 29.4604 46.0627C23.4145 51.3796 17.5372 56.5483 11.4675 61.8862C13.484 62.409 15.3312 62.1426 17.2977 62.1188Z" fill="#7C3AED"/>
<path d="M12.9624 8.20893C13.0318 9.62472 13.9558 10.2713 14.6409 11.0768C22.3404 20.1297 30.0639 29.1542 37.7785 38.1893C38.0465 38.5032 38.2887 38.8476 38.6656 39.337C37.0524 41.2601 35.1442 42.5978 33.4026 44.1556C32.7182 44.7678 32.2036 43.7939 31.7571 43.2684C26.9672 37.631 22.1938 31.9742 17.4108 26.3287C13.6072 21.8391 9.77113 17.3873 5.99909 12.8612C3.84625 10.2781 3.4004 6.53293 4.66998 3.44861C5.51402 1.39808 6.90442 0.391295 8.77724 0.367268C12.8847 0.314554 16.9929 0.332914 21.1009 0.331686C21.9079 0.33144 22.6361 0.696012 23.2666 1.23948C29.4055 6.53098 35.1786 12.3635 41.0782 18.0089C41.1524 18.0799 41.1641 18.2416 41.3011 18.6416C39.721 20.182 38.0968 21.8164 36.422 23.3756C35.6397 24.1039 35.0853 23.2625 34.5408 22.7573C30.1372 18.6721 25.629 14.7287 21.3872 10.4216C18.8224 7.81727 16.0739 7.56161 12.9624 8.20893Z" fill="#7C3AED"/>
<path d="M159.284 27.7662C158.888 30.8335 158.507 33.7283 158.091 36.9033C159.423 36.2347 160.227 35.1761 161.112 34.2963C164.207 31.2194 167.272 28.0999 170.314 24.9502C171.074 24.1634 171.868 23.8044 172.875 23.8355C174.65 23.8904 176.427 23.8373 178.203 23.8494C178.74 23.853 179.314 23.7394 179.959 24.4617C178.604 25.8545 177.305 27.2207 175.978 28.547C173.059 31.4646 170.147 34.3943 167.184 37.2496C166.202 38.1958 166.284 38.9225 167.049 39.9842C170.245 44.4196 173.386 48.9099 176.547 53.3799C176.857 53.8181 177.284 54.1772 177.293 55.0834C175.613 55.5215 173.89 55.0812 172.232 55.3531C169.321 55.8305 167.404 54.538 165.724 51.6877C163.394 47.7329 160.658 44.11 157.887 40.0393C157.062 43.9073 156.842 47.4682 156.346 50.9692C155.616 56.1247 156.435 55.2922 152.257 55.3373C147.851 55.3848 147.807 55.3402 148.451 50.23C149.851 39.1311 151.289 28.0391 152.731 16.9478C153.37 12.031 153.391 12.0348 157.606 11.2287C161.269 10.5282 161.252 10.5255 160.75 14.7861C160.247 19.052 159.782 23.3243 159.284 27.7662Z" fill="#1F2A44"/>
<path d="M52.856 51.4142C55.8948 54.2745 58.8885 56.9813 61.777 59.8358C63.3458 61.3861 65.0468 62.2147 67.0763 62.1613C68.6582 62.1197 70.2523 62.3482 72.0427 61.9329C63.6072 52.5482 55.3226 43.3314 46.9327 33.9974C48.6508 31.972 50.4634 30.4931 52.2056 28.9264C53.0327 28.1826 53.5217 29.1594 54.009 29.7082C58.2187 34.4491 62.3994 39.226 66.6133 43.9617C70.747 48.6072 74.8976 53.2321 79.065 57.8356C80.8136 59.7671 81.5236 62.0993 80.7092 64.7341C79.8152 67.6265 77.9196 69.6993 75.3142 69.8568C70.6691 70.1374 66.0027 69.9301 61.3452 69.9283C60.5178 69.928 59.8208 69.4697 59.233 68.8894C54.4725 64.1892 49.7359 59.4554 44.9983 54.7232C44.8422 54.5673 44.7524 54.3191 44.5068 53.9019C46.2461 52.3237 47.9382 50.7777 49.642 49.2497C50.0746 48.8617 50.4788 49.0837 50.8465 49.4436C51.4866 50.0699 52.1268 50.6961 52.856 51.4142Z" fill="#7C3AED"/>
<path d="M135.671 51.5027C136.211 46.9401 136.674 42.5375 137.233 38.152C137.649 34.8953 136.97 32.3881 135.207 31.2581C132.831 29.7361 129.817 30.3007 127.825 32.4782C125.846 34.6415 125.672 37.5107 125.34 40.3627C124.82 44.8239 124.225 49.2733 123.731 53.7383C123.602 54.9 123.162 55.3344 122.229 55.3184C120.619 55.2908 119.008 55.2455 117.401 55.3055C116.021 55.357 115.675 54.595 115.859 53.1205C116.458 48.3439 117.013 43.5598 117.588 38.7792C118.101 34.5168 118.684 30.264 119.101 25.9888C119.256 24.3999 119.799 23.7959 121.1 23.8551C122.375 23.9131 123.655 23.9178 124.929 23.8477C126.311 23.7715 127.108 24.2127 126.701 26.0757C126.635 26.3776 126.692 26.7166 126.692 27.4629C128.669 25.5411 130.594 24.1427 132.91 23.5685C134.85 23.0874 136.756 22.9781 138.678 23.4559C143.717 24.7084 145.813 28.8314 145.441 34.5174C145.02 40.949 144.029 47.3287 143.289 53.7313C143.178 54.6903 142.81 55.312 141.904 55.3081C140.072 55.3002 138.241 55.3036 136.409 55.3071C135.529 55.3087 135.228 54.8143 135.402 53.8056C135.523 53.104 135.561 52.3826 135.671 51.5027Z" fill="#1F2A44"/>
<path d="M100.793 10.749C101.05 14.3649 100.249 17.7211 99.8579 21.1312C98.9532 29.0175 97.94 36.8868 97.0619 44.777C96.6271 48.6837 96.9958 49.0485 100.262 48.8617C100.359 48.8561 100.46 48.9526 100.66 49.0511C100.712 50.774 100.295 52.4588 100.011 54.1634C99.9248 54.6836 99.5979 54.8807 99.2146 55.0503C96.842 56.1003 94.4376 56.2661 92.0727 55.1535C89.7535 54.0624 88.3208 51.1545 88.6374 48.1987C89.233 42.6375 89.908 37.0881 90.5536 31.5344C91.1916 26.0453 91.8594 20.5608 92.4646 15.0666C92.7876 12.134 92.7341 12.0849 95.3102 11.5509C97.0951 11.1809 98.8395 10.45 100.793 10.749Z" fill="#1F2A44"/>
<path d="M104.822 35.5865C105.177 32.2435 105.535 29.0765 105.866 25.9057C106.02 24.4281 106.624 23.7378 107.951 23.8267C109.443 23.9267 110.947 23.9179 112.441 23.8343C113.792 23.7586 114.199 24.4042 114.016 25.9375C113.384 31.2316 112.827 36.5379 112.208 41.8341C111.747 45.7752 111.2 49.7027 110.765 53.6474C110.63 54.875 110.18 55.3484 109.158 55.3213C107.44 55.2756 105.72 55.2989 104.001 55.3121C102.979 55.3199 102.518 54.9896 102.701 53.5648C103.464 47.6406 104.119 41.6973 104.822 35.5865Z" fill="#1F2A44"/>
<path d="M110.095 19.1534C107.315 18.1198 106.3 16.2637 106.855 13.4409C107.342 10.9694 109.636 9.24415 111.837 9.69435C114.182 10.1742 115.565 12.2549 115.339 14.9641C115.113 17.6615 113.033 19.3834 110.095 19.1534Z" fill="#1F2A44"/>
</g>
<defs>
<clipPath id="clip0_76_2">
<rect width="180" height="71" fill="white"/>
</clipPath>
</defs>
</svg>
